{"title":"spooks S09E03 WS PDTV xvid-fov.avi","uid":5874482,"size":577261968,"categoryP":"video","categoryS":"tv_shows","magnet":"?xt=urn:btih:f31b5867cf25ee1dd6c85e2ad63cc56867400bca&amp;dn=spooks+S09E03+WS+PDTV+xvid-fov.avi&amp;tr=udp%3A%2F%2Ftracker.openbittorrent.com%3A80&amp;tr=udp%3A%2F%2Fopen.demonii.com%3A1337&amp;tr=udp%3A%2F%2Ftracker.coppersurfer.tk%3A6969&amp;tr=udp%3A%2F%2Fexodus.desync.com%3A6969","seeders":0,"leechers":0,"uploader":"ogvh5150","files":1,"time":1286561904,"description":"General\nComplete name                    : spooks.9x03.ws_pdtv_xvid-fov.avi\nFormat                           : AVI\nFormat/Info                      : Audio Video Interleave\nFile size                        : 551 MiB\nDuration                         : 58mn 39s\nOverall bit rate                 : 1 312 Kbps\nWriting application              : transcode-1.0.7\n\nVideo\nID                               : 0\nFormat                           : MPEG-4 Visual\nFormat profile                   : AdvancedSimple@L5\nFormat settings, BVOP            : Yes\nFormat settings, QPel            : No\nFormat settings, GMC             : No warppoints\nFormat settings, Matrix          : Default (H.263)\nMuxing mode                      : Packed bitstream\nCodec ID                         : XVID\nCodec ID/Hint                    : XviD\nDuration                         : 58mn 39s\nBit rate                         : 1 170 Kbps\nWidth                            : 624 pixels\nHeight                           : 352 pixels\nDisplay aspect ratio             : 16:9\nFrame rate                       : 25.000 fps\nResolution                       : 24 bits\nColorimetry                      : 4:2:0\nScan type                        : Progressive\nBits/(Pixel*Frame)               : 0.213\nStream size                      : 491 MiB (89%)\nWriting library                  : XviD 1.2.1 (UTC 2008-12-04)\n\nAudio\nID                               : 1\nFormat                           : MPEG Audio\nFormat version                   : Version 1\nFormat profile                   : Layer 3\nFormat_Settings_Mode             : Joint stereo / MS Stereo\nCodec ID                         : 55\nCodec ID/Hint                    : MP3\nDuration                         : 58mn 39s\nBit rate mode                    : Variable\nBit rate                         : 192 Kbps\nChannel(s)                       : 2 channels\nSampling rate                    : 48.0 KHz\nResolution                       : 16 bits\nStream size                      : 54.2 MiB (10%)\nAlignment                        : Aligned on interleaves\nInterleave, duration             : 24 ms (0.60 video frame)\n\n","torrent":{"xt":"urn:btih:f31b5867cf25ee1dd6c85e2ad63cc56867400bca","amp;dn":"spooks+S09E03+WS+PDTV+xvid-fov.avi","amp;tr":["udp%3A%2F%2Ftracker.openbittorrent.com%3A80","udp%3A%2F%2Fopen.demonii.com%3A1337","udp%3A%2F%2Ftracker.coppersurfer.tk%3A6969","udp%3A%2F%2Fexodus.desync.com%3A6969"],"infoHash":"f31b5867cf25ee1dd6c85e2ad63cc56867400bca","infoHashBuffer":{"type":"Buffer","data":[243,27,88,103,207,37,238,29,214,200,94,42,214,60,197,104,103,64,11,202]},"announce":[],"urlList":[]}}